<svg width="70" height="22" viewBox="0 0 24 24" fill="#F3F3F3" xmlns="http://www.w3.org/2000/svg">
  <path d="M12.004.945c-3.467 0-5.457.924-5.968 1.063C3.27 2.97.945 5.773.945 12.004c0 6.23 2.326 9.034 5.091 9.996.511.139 2.501 1.063 5.968 1.063s5.457-.924 5.968-1.063c2.765-.962 5.091-3.766 5.091-9.996 0-6.231-2.326-9.034-5.091-9.996-.511-.139-2.501-1.063-5.968-1.063zm6.84 8.217c.006.055.006.114.006.174 0 3.78-2.79 8.14-8.14 8.14a8.092 8.092 0 01-4.388-1.286 5.767 5.767 0 004.248-1.188c-1.253-.023-2.31-.851-2.674-1.988.175.034.355.052.54.052.262 0 .515-.035.756-.1-1.31-.263-2.296-1.42-2.296-2.806v-.024c.386.215.828.344 1.297.359a2.866 2.866 0 01-.889-3.834 8.159 8.159 0 005.922 3.002 2.871 2.871 0 014.883-2.615 5.756 5.756 0 001.819-.695 2.877 2.877 0 01-1.26 1.587 5.734 5.734 0 001.646-.451 5.833 5.833 0 01-1.434 1.487l.264.186z"/>
</svg>
