<svg width="80" height="20" viewBox="0 0 512 107" fill="#44D62C" xmlns="http://www.w3.org/2000/svg">
  <path d="M207.3 12.5h29.2v82.1h51.3v24.8H207.3V12.5zm-42.4 0h-82V36h52.8c7.3 0 13.2 5.9 13.2 13.2 0 7.3-5.9 13.2-13.2 13.2h-52.8v56.9h29.2V87.2h13.6l25.1 32.2h35.8L157 82.7c13.6-7.3 22.9-21.6 22.9-37.8 0-17.8-14.5-32.4-32.4-32.4h-82.6zm246.8 0l-44.1 106.9h30.8l8.1-21.3h47.6l8.3 21.3h30.8L448.9 12.5h-37.2zm-0.6 62.3l15.8-41.7 16 41.7h-31.8zM493.1 12.5h-82v24.8h82V12.5zm0 82.1h-82v24.8h82V94.6zm0-41h-82v24.8h82V53.6zM0 12.5h82v24.8H29.2v17.3h52.8v24.8H29.2v17.3H82v22.7H0V12.5z"/>
</svg>
