<svg width="80" height="22" viewBox="0 0 24 24" fill="#FF5200" xmlns="http://www.w3.org/2000/svg">
  <path d="M12 0C5.373 0 0 5.373 0 12s5.373 12 12 12 12-5.373 12-12S18.627 0 12 0zm5.894 17.787c-1.137.744-2.467 1.138-3.893 1.138-2.344 0-4.467-1.15-5.756-2.913l2.072-1.442c.855 1.172 2.205 1.93 3.684 1.93.83 0 1.612-.244 2.263-.66l1.63 1.947zm1.32-4.42c-.084 1.076-.373 2.095-.855 3.018l-1.947-1.63c.297-.586.486-1.233.555-1.918l2.247.53zm-2.486-5.58c.744 1.137 1.138 2.467 1.138 3.894 0 .384-.029.76-.084 1.13l-2.247-.53c.029-.196.049-.397.049-.6 0-1.48-.758-2.83-1.93-3.685l1.442-2.072c.635.47 1.19 1.035 1.632 1.682v.181zm-7.022-2.32l-.53 2.247c.196-.029.397-.049.6-.049 1.48 0 2.83.758 3.685 1.93l2.072-1.442c-1.172-1.605-3.044-2.686-5.147-2.686-.234 0-.462.014-.68.037v-.037zm-5.143 4.24c.084-1.076.373-2.095.855-3.018l1.947 1.63c-.297.586-.486 1.233-.555 1.918l-2.247-.53zm.53 2.08l2.247.53c-.029.196-.049.397-.049.6 0 1.48.758 2.83 1.93 3.685l-1.442 2.072c-1.605-1.172-2.686-3.044-2.686-5.147 0-.604.078-1.188.217-1.74h-.217z"/>
</svg>
